<svg xmlns="http://www.w3.org/2000/svg" width="100%" height="100%" viewBox="0 0 128 128"><path fill="#09d261" d="M15 0A15 15 0 0 0 0 15v98a15 15 0 0 0 15 15h98a15 15 0 0 0 15-15V15a15 15 0 0 0-15-15H15z"/><path fill="#fff" d="M90.7 37.2a36.9 36.9 0 0 0-26.4-11 37.4 37.4 0 0 0-32.5 56.2L26.4 102l19.9-5.2a37.7 37.7 0 0 0 44.4-59.6zM64.3 94.9c-5.5 0-11-1.4-15.8-4.3l-1.2-.6-11.9 3 3.1-11.6-.8-1.2a31 31 0 0 1 10-42.8 31 31 0 0 1 42.8 10 31 31 0 0 1-10 42.8 29.8 29.8 0 0 1-16.2 4.7Zm18-22.7-2.2-1-5.3-2.5-.7-.2c-.6 0-1 .2-1.4.4l-3 3.5a1.1 1.1 0 0 1-1.1.6h-.2l-.8-.4-1-.4c-2.3-1-4.3-2.3-6-3.9l-1.4-1.2a22.9 22.9 0 0 1-3.9-5l-.2-.4-.4-.8c0-.4 0-.8.2-1l1.4-1.6 1-1.5c.5-.6.7-1.4.5-2-.3-1-2.7-6.6-3.3-7.8a2.4 2.4 0 0 0-1.5-1h-2.2l-1.2.2-.2.2-1.3.8-1 1.2a10.4 10.4 0 0 0-2.2 6.4c0 1.6.4 3.3 1 4.7l.2.6a34.1 34.1 0 0 0 7.6 10.4l.8.9c.6.6 1.2 1 1.6 1.6A36.6 36.6 0 0 0 71 80.8l2 .4h2c1 0 2.3-.4 3.1-.8.6-.5 1-.5 1.5-.9l.4-.4 1.2-1c.4-.4.8-.8 1-1.2.4-.8.6-1.9.8-2.9v-1.4l-.6-.4z"/></svg>