<svg xmlns="http://www.w3.org/2000/svg" width="100%" height="100%" viewBox="0 0 128 128"><linearGradient id="a" x1="-581.1" x2="-478.9" y1="496" y2="642" gradientTransform="matrix(1 0 0 -1 594 633)" gradientUnits="userSpaceOnUse"><stop offset="0" stop-color="#FFB900"/><stop offset="1" stop-color="#9100EB"/></linearGradient><path fill="url(#a)" d="M15 0A15 15 0 0 0 0 15v98a15 15 0 0 0 15 15h98a15 15 0 0 0 15-15V15a15 15 0 0 0-15-15Z"/><g fill="#fff"><path d="M86 112H42a26 26 0 0 1-26-26V42a26 26 0 0 1 26-26h44a26 26 0 0 1 26 26v44a26 26 0 0 1-26 26ZM42 24c-10 0-18 8-18 18v44c0 10 8 18 18 18h44c10 0 18-8 18-18V42c0-10-8-18-18-18Z"/><path d="M64 88a24 24 0 1 1 0-48 24 24 0 0 1 0 48zm0-40a16 16 0 1 0 0 32 16 16 0 0 0 0-32z"/><circle cx="89.5" cy="38.5" r="5.5"/></g></svg>