<svg xmlns="http://www.w3.org/2000/svg" width="100%" height="100%" viewBox="0 0 128 128"><path fill="#bd2026" d="M15 0A15 15 0 0 0 0 15v98a15 15 0 0 0 15 15h98a15 15 0 0 0 15-15V15a15 15 0 0 0-15-15H15z"/><path fill="#fff" d="M42.1 109.7a59 59 0 0 1 .2-17.2l7-29.9s-1.7-3.6-1.7-8.9c0-8.3 4.8-14.6 10.8-14.6 5.2 0 7.6 3.9 7.6 8.5 0 5.1-3.2 12.8-5 20-1.4 6 3 10.8 9 10.8 10.6 0 18.8-11.2 18.8-27.5 0-14.3-10.3-24.4-25-24.4a26 26 0 0 0-27.2 26c0 5.2 2 10.8 4.5 13.8.5.6.6 1 .4 1.7L40 74.8c-.3 1-1 1.3-2 .8C30.2 72 25.6 61 25.6 52.3 25.7 33.4 39.4 16 65.3 16c20.9 0 37 14.8 37 34.7 0 20.7-13 37.3-31.1 37.3-6.1 0-11.8-3.1-13.8-6.9l-3.7 14.3a71.3 71.3 0 0 1-7.5 15.7l-3.1 4.9z"/></svg>