<svg xmlns="http://www.w3.org/2000/svg" width="100%" height="100%" viewBox="0 0 128 128"><path fill="#fff" d="M14 14h100v100H14Z"/><path fill="#598dca" d="M15 0A15 15 0 0 0 0 15v98a15 15 0 0 0 15 15h98a15 15 0 0 0 15-15V15a15 15 0 0 0-15-15H15zm61.8 38.6a15.4 15.4 0 0 1 3.8.4c1 .4 2.8 1.2 3.9 2l2.2 1.4 2.4-.6c1.3-.5 3.2-1.2 3.9-1.6.8-.5 1.6-.7 1.6-.5 0 .8-1.8 3.3-3 4.8-2 2-1.5 2.2 2.3 1 2.3-.9 2.3-.9 2 0L92.5 49c-2.5 2.4-2.5 2.7-2.5 4.8a39.4 39.4 0 0 1-18.1 31 37.8 37.8 0 0 1-38-.6s1.8-.4 3.8-.4c4.3 0 8.4-1.2 12-3.2l2.4-1.6-2.8-1c-4-1.2-7.5-4.4-8.3-7.3-.3-1-.1-1.1 2.3-1.1h2.5l-2-1a14.4 14.4 0 0 1-6.3-5.7 17 17 0 0 1-1.6-6.1c.2-.2 1.1.2 2.2.5 3 1.1 3.4.8 1.6-1A13.2 13.2 0 0 1 37.1 43l.8-2.3 2.9 3c6 6 13.3 9.5 21.3 10.5l2 .3V52A12.8 12.8 0 0 1 73 39a15.4 15.4 0 0 1 3.8-.4z"/></svg>