<svg width="1000" height="1000" viewBox="0 0 265 265" xmlns="http://www.w3.org/2000/svg"><path fill="currentColor" d="M61 235c-10-2-37-9-46-13-10-3-10-4-10-9l1-7 15 4c23 8 38 10 62 10 25 0 33-1 65-9l21-6 18 2a172 172 0 0 0 72-6l-1 12-1 12-11 3c-12 3-48 6-60 4-7-1-8-2-8-6-1-5-1-6-7-6l-22 4-29 8c-12 2-49 4-59 3zm2-22c-15-2-31-6-44-11-12-4-12-4-12-9 6-22 8-34 33-39 26-5 43 3 60-8 25-17 54-34 46-76-4-14-6-26-5-40 28-4 34 14 34 14 51-14 68 3 69 16-4 26-4 51 1 65 11 30 13 35 14 52 1 19 3 17-17 21-18 4-33 5-54 2h-26l-23 6c-29 8-53 10-76 7z"/></svg>
